PathFileType	4	(X/Y/Z)	C:\Users\Basilio\Documents\Thesis Gigler\squatting_fais\c3dfiles\058\SJ_pre3\markers_experimental.trc
DataRate	CameraRate	NumFrames	NumMarkers	Units	OrigDataRate	OrigDataStartFrame	OrigNumFrames
200.000000	200.000000	4	61	mm	200.000000	525	1400
Frame#	Time	FHD			LBHD			RBHD			C7			T10			CLAV			LSHO			LUUPA			LMUPA			LDUPA			LLEP			LMEP			LRAD			LUL			LRFIN			RSHO			RUPA1			RMUPA			RDUPA			RLEP			RMEP			RRAD			RUL			RUFIN			LASI			RASI			USACR			LSACR			RSACR			LTHI1			LTHI2			LTHI3			LTHI4			LLFC			LMFC			LTIB1			LTIB2			LTIB3			LTIB4			LLMAL			LMMAL			LHEE			LMT1			LMT2			LMT5			RTHI			RTHI2			RTHI3			RTHI4			RLFC			RMFC			RTIB1			RTIB2			RTIB3			RTIB4			RLMAL			RMMAL			RHEE			RMT1			RMT2			RMT5			
		X1	Y1	Z1	X2	Y2	Z2	X3	Y3	Z3	X4	Y4	Z4	X5	Y5	Z5	X6	Y6	Z6	X7	Y7	Z7	X8	Y8	Z8	X9	Y9	Z9	X10	Y10	Z10	X11	Y11	Z11	X12	Y12	Z12	X13	Y13	Z13	X14	Y14	Z14	X15	Y15	Z15	X16	Y16	Z16	X17	Y17	Z17	X18	Y18	Z18	X19	Y19	Z19	X20	Y20	Z20	X21	Y21	Z21	X22	Y22	Z22	X23	Y23	Z23	X24	Y24	Z24	X25	Y25	Z25	X26	Y26	Z26	X27	Y27	Z27	X28	Y28	Z28	X29	Y29	Z29	X30	Y30	Z30	X31	Y31	Z31	X32	Y32	Z32	X33	Y33	Z33	X34	Y34	Z34	X35	Y35	Z35	X36	Y36	Z36	X37	Y37	Z37	X38	Y38	Z38	X39	Y39	Z39	X40	Y40	Z40	X41	Y41	Z41	X42	Y42	Z42	X43	Y43	Z43	X44	Y44	Z44	X45	Y45	Z45	X46	Y46	Z46	X47	Y47	Z47	X48	Y48	Z48	X49	Y49	Z49	X50	Y50	Z50	X51	Y51	Z51	X52	Y52	Z52	X53	Y53	Z53	X54	Y54	Z54	X55	Y55	Z55	X56	Y56	Z56	X57	Y57	Z57	X58	Y58	Z58	X59	Y59	Z59	X60	Y60	Z60	X61	Y61	Z61	

526	2.625	67.46519470214845	1152.599243164063	-844.348327636719	-96.767936706543	1121.22119140625	-914.112976074219	75.32238769531251	1163.280395507813	-986.562194824219	-136.6310577392578	1054.893310546875	-934.8148193359377	-390.8960571289064	888.4932250976565	-917.801696777344	-50.12438583374025	907.1507568359377	-911.5578613281252	-11.74602508544922	937.952575683594	-1074.11669921875	-161.2008666992188	938.2368164062502	-1254.563354492188	-179.8172607421875	890.017761230469	-1253.531616210938	-214.3565521240235	918.4734497070315	-1293.5283203125	-297.4315185546876	894.5856933593752	-1325.761352539063	-338.7584838867188	947.8711547851565	-1286.897094726563	-448.5599060058595	783.4249267578127	-1121.412231445313	-456.297821044922	717.2344360351564	-1168.871459960938	-392.6217041015626	748.4833984375001	-1094.739624023438	-22.319242477417	970.778991699219	-752.4699096679689	-187.8981170654297	1003.633483886719	-597.4400634765626	-204.9612731933594	955.9888305664065	-593.1776123046876	-245.8675231933594	984.0638427734377	-560.4064941406251	-313.9022216796876	979.3957519531252	-528.9641723632814	-367.7596435546876	1012.560424804688	-594.2838134765626	-414.8756713867189	791.9976806640627	-699.4229736328126	-413.1727905273439	742.3577880859376	-636.0284423828126	-372.6671447753907	734.7001953125001	-732.4031982421876	-412.0569152832032	628.4298706054689	-1024.688720703125	nan	nan	nan	-505.6634826660157	808.116394042969	-905.152526855469	-533.2482299804689	789.1887207031252	-932.136901855469	-533.0747070312501	790.5862426757815	-874.9644165039065	-350.2920837402344	581.8883666992189	-1154.929077148438	-266.9635925292969	572.0324707031251	-1174.067993164063	-239.1193084716797	604.4734497070314	-1149.429565429688	-237.3683319091797	518.5308837890626	-1184.736694335938	-163.9663848876953	469.5120849609376	-1188.866455078125	-127.7522430419922	458.7351684570314	-1071.856079101563	-131.9989318847657	334.0483093261719	-1159.015991210938	-204.8884429931641	327.1166992187501	-1206.1513671875	-170.1205444335938	304.0993347167969	-1186.687133789063	-210.0194091796876	233.562240600586	-1155.633422851563	-349.2319946289063	88.52719879150392	-1154.28662109375	-313.4840698242188	95.88286590576173	-1069.740234375	-413.429412841797	50.49350357055665	-1098.517944335938	-188.9423217773438	63.12607574462892	-1116.481689453125	-192.0909729003907	60.4045867919922	-1163.216430664063	-245.6517639160157	35.0073585510254	-1211.161499023438	-435.9315185546876	581.5991821289064	-673.0284423828126	-371.0578308105469	591.7371215820314	-660.8613891601564	-353.8736572265626	619.1274414062501	-667.4840698242189	-314.5145874023438	531.5978393554689	-648.5575561523439	-180.8259887695313	459.4544677734376	-629.3475341796876	-130.868408203125	452.0067138671876	-751.9689941406251	-177.8742370605469	278.7167968750001	-707.3333740234376	-251.8578796386719	226.0276184082032	-642.6814575195314	-220.2517547607422	207.6294860839844	-671.8323364257814	-243.6491851806641	169.7020721435547	-707.9641723632814	-344.2547302246094	93.28833007812501	-668.5100708007814	-301.6945800781251	98.57513427734378	-752.3746948242189	-408.6648864746095	51.39587402343751	-732.9653320312501	-193.7957611083985	54.39105224609376	-689.1382446289064	-204.2010803222657	61.72364044189455	-637.8007812500001	-257.8253479003907	28.38863563537598	-594.7545776367189	
527	2.63	67.82202148437501	1151.164184570313	-844.3018798828127	-96.09011077880862	1119.632202148438	-914.2795410156252	75.51108551025392	1161.817993164063	-986.5375976562502	-136.1656188964844	1053.602661132813	-934.8294067382815	-390.7539978027345	887.3501586914065	-917.5875244140627	-49.39974594116212	905.5206298828127	-911.5193481445315	-11.61393833160401	936.2119140625002	-1073.982788085938	-160.8341979980469	936.762634277344	-1254.594970703125	-179.3937377929688	888.640319824219	-1253.487426757813	-213.9311676025391	916.9321289062502	-1293.359619140625	-296.9453430175782	893.3138427734377	-1325.817016601563	-338.8421020507813	946.2866210937502	-1286.868408203125	-448.183807373047	782.3440551757815	-1121.4287109375	-456.2814025878907	716.2607421875001	-1168.755126953125	-392.4383239746095	747.6553955078126	-1094.82861328125	-22.10667991638184	969.1240234375002	-752.3052368164064	-187.5956420898438	1002.785888671875	-597.4700927734376	-204.7548980712891	955.1780395507815	-593.2190551757814	-245.4085388183594	983.1884765625002	-560.4428100585939	-313.5829772949219	978.843688964844	-529.0494384765626	-367.5715026855469	1011.560546875	-594.3279418945314	-415.0957641601564	790.975524902344	-699.4669189453126	-412.8755187988282	741.5172729492189	-636.1685180664064	-372.6867980957032	734.3175048828126	-732.4712524414064	-410.4934387207032	628.2630004882814	-1024.654174804688	nan	nan	nan	-505.825897216797	807.1118164062502	-905.2434082031252	-533.2474975585939	787.9158325195315	-932.1883544921877	-533.2066650390626	789.2667236328127	-875.0237426757815	-349.9217529296876	581.2940673828126	-1154.841552734375	-266.5239562988282	571.6569824218751	-1173.8779296875	-238.6551208496094	603.6712646484376	-1149.23583984375	-236.7354431152344	518.2125854492189	-1184.646240234375	-163.4835968017578	469.5436401367189	-1188.618530273438	-126.7314834594727	458.7375488281251	-1071.478881835938	-131.4793853759766	333.9134521484376	-1158.859252929688	-204.4682159423829	326.8287963867188	-1206.027954101563	-169.5811462402344	303.8984375000001	-1186.525024414063	-209.5952606201172	233.9171905517579	-1155.450927734375	-349.1796569824219	88.53006744384767	-1154.249877929688	-313.4723815917969	95.83587646484376	-1069.695434570313	-413.4248046875001	50.55550003051759	-1098.514892578125	-188.84814453125	63.15155410766603	-1116.426879882813	-192.0777130126954	60.4518394470215	-1163.166381835938	-245.6107482910157	35.04844284057618	-1211.164916992188	-435.7108154296876	580.6436157226564	-673.2412109375001	-370.7600097656251	590.7041015625001	-661.2138061523439	-353.7641906738282	618.2208251953126	-667.5957031250001	-314.0609741210938	530.7878417968751	-648.7563476562501	-180.2247924804688	459.2446899414064	-629.5219726562501	-130.2045135498047	451.7878417968751	-752.4233398437501	-177.5474700927735	278.5647583007813	-707.6037597656251	-251.5811767578126	225.9637298583985	-642.8439331054689	-220.0367889404297	207.5819091796876	-672.0634765625001	-243.5278625488282	169.5295867919922	-708.1364135742189	-344.1501159667969	93.29064178466798	-668.6463012695314	-301.6023254394532	98.52143859863284	-752.4828491210939	-408.6782836914064	51.40288162231447	-733.0114135742189	-193.7325134277344	54.43972396850587	-689.2582397460939	-204.2018127441407	61.70872497558595	-637.8339843750001	-257.7820739746094	28.57944869995118	-594.8071899414064	
528	2.635	67.87179565429689	1149.77734375	-844.322692871094	-96.16577911376956	1118.11474609375	-914.1633300781252	76.03572082519533	1160.29296875	-986.6282348632815	-135.8388366699219	1051.929321289063	-934.8502197265627	-390.4525146484376	886.3883056640627	-917.6273193359377	-49.27393341064455	903.9202880859377	-911.4007568359377	-10.95305347442627	934.869323730469	-1073.964233398438	-160.3903961181641	935.2756958007815	-1254.515014648438	-178.7714538574219	887.1901855468752	-1253.651489257813	-213.4348754882813	915.6352539062502	-1293.50390625	-296.5523071289063	891.958435058594	-1325.801513671875	-338.0543518066407	945.8485107421877	-1286.941650390625	-448.2517700195314	781.6072387695315	-1121.373657226563	-456.4404602050782	715.4306640625001	-1168.697875976563	-392.6527099609376	746.7287597656251	-1094.6767578125	-21.73855018615723	967.7598266601565	-752.2775878906251	-187.6160125732422	1001.508239746094	-597.4086303710939	-204.6763153076172	954.0357666015627	-593.1241455078126	-245.3328094482422	982.0820312500002	-560.5058593750001	-313.4891662597657	977.910827636719	-529.1165161132814	-367.2907409667969	1010.824401855469	-594.6362304687501	-415.2430725097657	790.1853027343752	-699.5106201171876	-413.3065795898439	740.5249633789064	-636.2102661132814	-372.7575073242188	733.2487182617189	-732.5543212890626	-411.6972961425782	626.6333007812501	-1024.979736328125	nan	nan	nan	-505.8277893066407	805.9629516601565	-905.3356933593752	-533.3996582031251	787.0107421875002	-932.3535766601565	-533.4873657226564	788.1992797851565	-875.1419067382815	-349.6179199218751	580.8639526367189	-1154.657836914063	-266.0693664550782	571.1647338867189	-1173.804809570313	-238.2709045410157	603.2512207031251	-1149.034912109375	-236.0413513183594	517.7255859375001	-1184.559204101563	-162.9330444335938	469.2858276367189	-1188.50244140625	-126.2293243408203	458.329315185547	-1071.238525390625	-131.4565582275391	334.1648559570313	-1158.720947265625	-204.0367736816407	326.6114196777344	-1205.816162109375	-170.7371520996094	303.6254272460938	-1185.810424804688	-209.4395446777344	233.727035522461	-1155.30224609375	-349.0677185058594	88.56613159179689	-1154.248413085938	-313.4609680175782	95.79854583740236	-1069.602783203125	-413.4203186035157	50.54070281982423	-1098.484252929688	-188.8556365966797	63.14371871948244	-1116.37109375	-192.151107788086	60.36133575439455	-1163.174194335938	-245.6273498535157	35.07943344116212	-1211.118774414063	-435.740447998047	579.3357543945314	-673.4777832031251	-370.7917785644532	590.2517700195314	-661.4530639648439	-353.7383117675782	617.6915283203126	-667.6712036132814	-313.8920593261719	530.3102416992189	-648.7296752929689	-179.8973083496094	458.968231201172	-629.6649169921876	-129.6098327636719	451.5812988281251	-752.7025756835939	-177.3554229736328	278.4415893554688	-707.8588867187501	-251.2859191894532	225.7449188232422	-642.9822387695314	-219.9510803222657	207.4909667968751	-672.1643676757814	-243.3714904785157	169.4339752197266	-708.2980346679689	-344.1063537597657	93.31558990478517	-668.7152099609376	-301.5941772460938	98.49298095703128	-752.5756225585939	-408.6782226562501	51.45910644531251	-733.1046142578126	-193.7190856933594	54.41960906982423	-689.2512817382814	-204.1743927001954	61.71008682250978	-637.8639526367189	-257.7471008300782	28.64475631713868	-594.8235473632814	
529	2.64	68.37704467773439	1148.548095703125	-844.3908691406252	-95.5446243286133	1116.690673828125	-914.1531372070315	76.27539825439455	1158.947387695313	-986.550964355469	-135.3097381591797	1050.8232421875	-934.932067871094	-390.158172607422	885.522155761719	-917.531677246094	-48.98509979248048	902.6194458007815	-911.360778808594	-10.92434978485108	933.0905761718752	-1073.801147460938	-159.9535217285157	933.8599853515627	-1254.4931640625	-178.2964477539063	885.8847656250002	-1253.605834960938	-213.429672241211	913.920593261719	-1293.23388671875	-296.0274963378907	890.9124755859377	-1325.796630859375	-337.6354675292969	944.732849121094	-1287.112915039063	-448.2590942382814	780.8963012695315	-1121.451049804688	-456.3003845214845	714.6547241210939	-1168.701293945313	-392.4886779785157	745.9414062500001	-1094.757690429688	-21.15659141540528	966.2926025390627	-752.1569213867189	-187.2662200927735	1000.325500488281	-597.4248046875001	-204.501205444336	952.7438964843752	-593.0464477539064	-245.2204589843751	980.845642089844	-560.5375976562501	-313.1254577636719	976.9515380859377	-529.3148193359376	-366.9927978515626	1010.078186035156	-594.7617797851564	-415.2337341308595	789.7127075195315	-699.6227416992189	-413.6375427246095	739.9403686523439	-636.1412963867189	-372.7545471191407	732.8754272460939	-732.5841064453126	-410.4801330566407	626.1683959960939	-1024.6396484375	nan	nan	nan	-506.022430419922	805.0354003906252	-905.4265747070315	-533.4025268554689	785.858337402344	-932.389099121094	-533.5780029296876	787.1284179687502	-875.1978759765627	-349.1055297851563	580.3295898437501	-1154.741455078125	-265.6777343750001	570.5662841796876	-1173.73779296875	-237.896224975586	602.8788452148439	-1148.83642578125	-235.4999237060547	517.3688354492189	-1184.371459960938	-162.5716705322266	468.844940185547	-1188.269287109375	-126.1872253417969	457.9702148437501	-1071.09765625	-130.8218994140625	334.0786132812501	-1158.552856445313	-203.6002044677735	326.4615478515626	-1205.6708984375	-170.3234558105469	303.4967651367188	-1185.615600585938	-209.133773803711	233.1978607177735	-1155.042358398438	-349.0472717285157	88.56104278564455	-1154.238159179688	-313.3504028320313	95.80682373046876	-1069.6162109375	-413.4170227050782	50.56301879882814	-1098.443725585938	-188.9000701904297	63.15020751953126	-1116.378051757813	-192.0205993652344	60.44760513305665	-1163.0810546875	-245.6195526123047	35.0827751159668	-1211.10009765625	-435.4556884765626	578.6156005859376	-673.8171386718751	-370.7279663085938	589.2761230468751	-661.7403564453126	-353.9023742675782	616.8894042968751	-667.7312011718751	-313.5193786621094	529.7249755859376	-649.0525512695314	-179.4722442626953	458.7073059082032	-629.8211059570314	-129.1382141113282	451.3894653320314	-753.0109863281251	-177.1299285888672	278.3416137695313	-708.0886840820314	-251.1473541259766	225.7782897949219	-643.1562500000001	-219.7998046875001	207.4427490234376	-672.2935791015626	-243.3488159179688	169.3617248535157	-708.4293212890626	-344.0877990722657	93.29618072509767	-668.7911987304689	-301.5422363281251	98.45994567871097	-752.6162719726564	-408.4912109375001	51.50737762451173	-733.1894531250001	-193.7046661376954	54.36896896362306	-689.3242187500001	-204.208969116211	61.65668106079103	-637.9431762695314	-257.7193298339844	28.67294502258301	-594.8944702148439	
